<svg width="42" height="42" viewBox="0 0 42 42" fill="none" xmlns="http://www.w3.org/2000/svg">
<g clip-path="url(#clip0_971_20242)">
<path d="M29.7654 42H12.2346C5.5082 42 0 36.4918 0 29.7654V12.2346C0 5.5082 5.5082 0 12.2346 0H29.7654C36.4918 0 42 5.5082 42 12.2346V29.7654C42 36.4918 36.4918 42 29.7654 42Z" fill="#355F8B"/>
<path d="M27.9383 32.8373H26.879C26.4024 32.8373 26.0051 32.4401 26.0051 31.9634V30.9042C26.0051 30.4275 26.4024 30.0303 26.879 30.0303H27.9383C28.415 30.0303 28.8122 30.4275 28.8122 30.9042V31.9634C28.8122 32.4401 28.4414 32.8373 27.9383 32.8373Z" fill="white"/>
<path d="M15.1212 32.8373H14.0619C13.5852 32.8373 13.188 32.4401 13.188 31.9634V30.9042C13.188 30.4275 13.5852 30.0303 14.0619 30.0303H15.1212C15.5978 30.0303 15.9951 30.4275 15.9951 30.9042V31.9634C15.9686 32.4401 15.5978 32.8373 15.1212 32.8373Z" fill="white"/>
<path d="M26.2432 25.8462H25.184C24.7073 25.8462 24.3101 25.449 24.3101 24.9723V23.9131C24.3101 23.4364 24.7073 23.0392 25.184 23.0392H26.2432C26.7199 23.0392 27.1171 23.4364 27.1171 23.9131V24.9723C27.1171 25.449 26.7199 25.8462 26.2432 25.8462Z" fill="white"/>
<path d="M16.7894 25.8462H15.7301C15.2534 25.8462 14.8562 25.449 14.8562 24.9723V23.9131C14.8562 23.4364 15.2534 23.0392 15.7301 23.0392H16.7894C17.266 23.0392 17.6633 23.4364 17.6633 23.9131V24.9723C17.6633 25.449 17.266 25.8462 16.7894 25.8462Z" fill="white"/>
<path d="M10.8047 16.4452H8.05055C7.60037 16.4452 7.2561 16.101 7.2561 15.6508C7.2561 15.2006 7.60037 14.8563 8.05055 14.8563H10.7782C11.2284 14.8563 11.5726 15.2006 11.5726 15.6508C11.5991 16.0745 11.2284 16.4452 10.8047 16.4452Z" fill="white"/>
<path d="M33.9232 16.4452H31.1956C30.7454 16.4452 30.4011 16.101 30.4011 15.6508C30.4011 15.2006 30.7454 14.8563 31.1956 14.8563H33.9232C34.3734 14.8563 34.7176 15.2006 34.7176 15.6508C34.7176 16.0745 34.3734 16.4452 33.9232 16.4452Z" fill="white"/>
<path d="M28.8123 30.8248H13.1881C11.4403 30.8248 10.0103 29.3947 10.0103 27.647V13.135C10.0103 10.937 11.7845 9.16272 13.9825 9.16272H28.0178C30.2158 9.16272 31.9901 10.937 31.9901 13.135V19.0934C31.9901 19.5436 31.6458 19.8878 31.1956 19.8878H11.5992V27.647C11.5992 28.5209 12.3142 29.2359 13.1881 29.2359H28.8123C29.6862 29.2359 30.4012 28.5209 30.4012 27.647V22.8273C30.4012 22.3771 30.7454 22.0328 31.1956 22.0328C31.6458 22.0328 31.9901 22.3771 31.9901 22.8273V27.647C31.9901 29.3947 30.5601 30.8248 28.8123 30.8248ZM11.5992 18.2989H30.4012V13.135C30.4012 11.8109 29.3419 10.7516 28.0178 10.7516H13.9825C12.6584 10.7516 11.5992 11.8109 11.5992 13.135V18.2989Z" fill="white"/>
</g>
<defs>
<clipPath id="clip0_971_20242">
<rect width="42" height="42" fill="white"/>
</clipPath>
</defs>
</svg>
